<?xml version="1.0" encoding="UTF-8" standalone="no"?>
<!DOCTYPE svg PUBLIC "-//W3C//DTD SVG 1.1//EN" "http://www.w3.org/Graphics/SVG/1.1/DTD/svg11.dtd">
<svg version="1.1" xmlns="http://www.w3.org/2000/svg" xmlns:xlink="http://www.w3.org/1999/xlink" preserveAspectRatio="xMidYMid meet" viewBox="0 0 640 640" width="640" height="640"><defs><path d="M0 0C-136.48 -85.86 -29.81 -67.47 320 55.19" id="bvcOJQmf"></path><path d="M399.28 147.11C432.62 162 470.96 170.7 514.31 173.23C508.96 268.82 489.61 348.52 456.28 412.34C422.95 476.15 375.62 524.07 314.31 556.11C240.59 524.07 184.87 476.15 147.14 412.34C109.41 348.52 89.67 268.82 87.92 173.23C133.11 180.43 174.57 176.58 212.31 161.69C250.04 146.8 284.04 120.87 314.31 83.89C337.62 111.14 365.95 132.22 399.28 147.11Z" id="a2X8KaP2oN"></path><path d="M387.45 174.39C416.77 187.62 450.49 195.35 488.61 197.6C483.91 282.5 466.89 353.3 437.58 409.98C408.26 466.66 366.64 509.23 312.72 537.69C247.89 509.23 198.88 466.66 165.7 409.98C132.51 353.3 115.15 282.5 113.61 197.6C153.36 203.99 189.83 200.57 223.01 187.35C256.19 174.12 286.1 151.09 312.72 118.24C333.22 142.45 358.14 161.17 387.45 174.39Z" id="bf9ypgUB0"></path><path d="M269.24 160.52C285.91 148.58 300.51 134.48 313.06 118.24C323.19 131.01 336.01 142.79 351.52 153.58C367.03 164.36 386.61 173.88 410.28 182.13C436.86 258.29 442.05 325.66 425.85 384.22C409.65 442.79 372.05 493.94 313.06 537.69C250.69 489.02 211.53 435.99 195.55 378.58C179.58 321.17 186.8 258.47 217.22 190.46C235.23 182.45 252.57 172.47 269.24 160.52Z" id="ffx6QIEgA"></path></defs><g><g><g><g><use xlink:href="#bvcOJQmf" opacity="1" fill-opacity="0" stroke="#000000" stroke-width="0" stroke-opacity="1"></use></g></g><g><use xlink:href="#a2X8KaP2oN" opacity="1" fill="#16285e" fill-opacity="1"></use><g><use xlink:href="#a2X8KaP2oN" opacity="1" fill-opacity="0" stroke="#000000" stroke-width="0" stroke-opacity="1"></use></g></g><g><use xlink:href="#bf9ypgUB0" opacity="1" fill="#7598ff" fill-opacity="1"></use><g><use xlink:href="#bf9ypgUB0" opacity="1" fill-opacity="0" stroke="#000000" stroke-width="0" stroke-opacity="1"></use></g></g><g><use xlink:href="#ffx6QIEgA" opacity="1" fill="#243b80" fill-opacity="1"></use><g><use xlink:href="#ffx6QIEgA" opacity="1" fill-opacity="0" stroke="#000000" stroke-width="0" stroke-opacity="1"></use></g></g></g></g></svg>